<?xml version="1.0" encoding="UTF-8"?>
<svg id="_Слой_2" data-name="Слой 2" xmlns="http://www.w3.org/2000/svg" xmlns:xlink="http://www.w3.org/1999/xlink" viewBox="0 0 839.7 1000">
  <defs>
    <style>
      .cls-1 {
        fill: none;
      }

      .cls-3 {
        fill-rule: evenodd;
      }

      .cls-4 {
        clip-path: url(#clippath);
      }
    </style>
    <clipPath id="clippath">
      <rect class="cls-1" y="137.15" width="839.7" height="862.85"/>
    </clipPath>
  </defs>
  <g id="_Слой_1-2" data-name="Слой 1">
    <g>
      <g class="cls-4">
        <g>
          <path class="cls-2" d="M426.14,995.96l.55.35,10.01-6.45v-.76l-10.56,6.86Z"/>          
          <path class="cls-5" d="M839.7,292.31c-1.55-36.2-8.54-95.99-49.04-141.48-5.1-5.73-9.62-10.21-13.6-13.68h-42.73v660.7l36.17-23.32V161.35c16.15,18.99,32.85,56.15,33.38,153.02v438.63l35.82-23.12v-437.57Z"/>
          <path class="cls-2" d="M674.92,137.15c-3.98,3.47-8.5,7.95-13.61,13.68-44.35,49.83-48.5,116.85-49.37,151.18v574.8l36.17-23.32V319.9c11.76-1.38,24.26,1.95,33.39,15.08v496.97l36.17-23.32V137.15h-42.75ZM648.15,311.74c.83-94.88,17.35-131.57,33.35-150.39v148.29c-10.73-1.2-22.34-.76-33.35,2.1Z"/>
          <path class="cls-2" d="M559.09,137.15v172.34c-10.88-1.07-22.58-.44-33.61,2.65v-175h-36.17v818.76l36.17-23.32V320.12c11.65-1.79,24.2.85,33.61,13v577.79l36.17-23.32V137.15h-36.17Z"/>
          <path class="cls-2" d="M403.32,987.45v1.2l12.26,7.89.87-.57-13.13-8.52Z"/>
          <path class="cls-2" d="M472.88,237.3v-100.15h-105.7v828.2l53.81,34.66,51.89-33.48V427.91l-36.17,23.34v531.55l-15.41,10.01-17.95-11.67V319.74c11.52-.87,23.56,2.97,32.26,16.26l34.1-14.25c-12.88-10.06-41.11-16.98-66.38-10.8v-169.83h33.39v115.95l36.17-19.76Z"/>
          <path class="cls-2" d="M314.32,454.34v469.26l-33.38-21.68V141.11h33.38v121.46l36.15-23.63v-101.79h-105.68v749.35l105.68,68.1V430.9l-36.15,23.45Z"/>
          <path class="cls-5" d="M105.7,321.75v-184.6h-42.73c-3.98,3.47-8.5,7.95-13.6,13.68C5.01,200.67.86,267.68,0,302v426.83l36.17,23.3v-432.04c11.58-1.71,24.04.98,33.38,13.03v440.51l36.17,23.3v-475.18h-.02ZM69.53,309.49c-10.78-1.07-22.42-.46-33.37,2.6.77-95.18,17.33-131.9,33.37-150.74v148.14Z"/>
          <path class="cls-2" d="M122.38,137.15v670.53l36.17,23.3v-192.49c12.44-1.84,25.9,1.4,35.39,15.91l34.05-14.23.09.04V137.15h-105.7ZM158.57,630.48V141.11h34.2l.59,243.49.59,243.5c-11.34-1.34-23.74-.85-35.38,2.38Z"/>
        </g>
      </g>
      <g>
        <path class="cls-3" d="M192.66,50.31l-122.8-4.44v-4.35l122.8-4.62v13.4Z"/>
        <path class="cls-3" d="M648.7,50.31l122.8-4.44v-4.35l-122.8-4.62v13.4Z"/>
        <g>
          <path class="cls-2" d="M395.61,1.26l8.03,37.93h2.94V1.26h9.01v37.93c.63-.13,2.66.32,2.9-.33l8.06-37.6h8.81l-9.29,41.55,10.67,43.1h-9.1l-9.14-37.79c-.34-.66-2.19-.2-2.9-.33v38.12h-9.01v-38.12h-2.94l-9.1,38.12h-9.1l10.58-43.11-9.21-41.54h8.81,0Z"/>
          <path class="cls-2" d="M277.58,1.26v76.05h4.89v20.72h-9.01v-12.12h-19.96v12.12h-8.81v-20.72c.53-.11,2.19.17,2.51-.03.77-.48,2.28-8,2.52-9.31.61-3.45,1.07-7.02,1.43-10.5,1.94-18.66,1.52-37.45,1.57-56.21h24.86ZM268.58,9.66h-7.05c-.04,15.95-.03,31.92-1.79,47.78-.73,6.62-1.67,13.69-4.09,19.87h12.92V9.66Z"/>
          <path class="cls-2" d="M452.18,1.26c-.19,12.86.25,25.76,0,38.62-.16,8.58-.77,17.2-1.19,25.79-.01.27-.05,2.06.11,2.06L464.51,1.26h9.79v84.65h-8.81c.25-14.1-.33-28.24,0-42.33.01-.46.2-.89.21-1.35.2-7.63.49-15.18.97-22.78l-13.8,66.47h-9.5V1.26h8.81Z"/>
          <path class="cls-2" d="M495.24,1.26v37.34h10.37V1.26h8.81v84.65h-8.81v-38.71h-10.37v38.71h-8.81V1.26h8.81Z"/>
          <path class="cls-2" d="M571.38,1.26v38.71h3.72l9.59-38.71h8.8l-10.47,41.54,11.84,43.11h-9.1l-10.67-38.71h-3.72v38.71h-8.8V1.26h8.8Z"/>
          <path class="cls-2" d="M288.25,26.08c-.25-.08-.28-.45-.3-.67-.27-2.34-.1-6.55,0-9.01.41-10.07,3.47-17.25,14.98-16.31,7.83.64,10.65,7.19,11.06,14.17.27,4.57.3,11.07,0,15.64-.32,4.99-2.27,10.57-6.85,13.1,4.63,2.48,6.92,7.61,7.25,12.7s.32,12.28,0,17.22c-.6,9.4-6.19,15.65-16.1,13.92-12.85-2.25-10.29-18.16-10.53-27.71h8.71s.29.27.29.29v14.47c0,.56.56,2.5.84,3.07.43.87,1.4,1.94,2.4,2.1,4.3.67,5.31-2.59,5.56-6.15.34-4.72.31-11.89.01-16.62-.15-2.27-.82-5.66-2.45-7.33-.55-.56-2.82-1.75-3.53-1.75h-6.16v-8.01h5.58c1.66,0,4.17-2.05,4.89-3.52,1.95-4.01,1.39-16.08,1.08-20.82-.15-2.3.13-6.05-2.78-6.8-2.18-.57-4.2.39-4.8,2.57-.11.41-.45,1.97-.45,2.29v13.2h-8.71v-.02Z"/>
          <path class="cls-2" d="M363.32,52.67v32.94s-.27.29-.29.29h-8.42s-.29-.27-.29-.29V1.26h13.99c5.03,0,10.22,4.43,11.99,8.94,2.27,5.8,1.94,18.34,1.62,24.79-.32,6.27-2.17,13.03-8.22,16.03-3.19,1.58-6.89,1.68-10.38,1.65ZM366.74,9.07c-1.08-.11-2.32.08-3.43,0v35.58h4.01c.26,0,1.66-.57,1.99-.75,2.6-1.36,3.41-4.65,3.6-7.36.36-5.44.36-13.74,0-19.18-.26-3.93-1.77-7.84-6.17-8.3h0Z"/>
          <path class="cls-2" d="M552.79,27.26h-8.81v-13.2c0-.49-.35-2.07-.49-2.64-1.43-5.67-8.32-4.1-8.49,1.3-.36,20.42-.36,40.93,0,61.34.33,1.99.92,4.56,3.26,4.96,2.33.4,4.27-.31,5.09-2.64.24-.69.64-2.6.64-3.27v-15.74h8.81c-.32,10.43,3.01,28.8-12.22,29.72-9.64.58-14.12-5.85-14.6-14.76-1.02-18.83.79-38.57,0-57.5.66-9.52,4.97-15.51,15.19-14.76,5.81.43,9.72,4.44,11,9.94,1.28,5.51.36,11.61.65,17.25h0Z"/>
          <path class="cls-2" d="M345.7,1.26v8.41h-12.72v28.93h10.96v8.6h-10.96v30.11h12.92v8.6h-21.73V1.26h21.53Z"/>
        </g>
      </g>
    </g>
  </g>
</svg>