<svg xmlns="http://www.w3.org/2000/svg" style="display: none;">
	<!-- Стрелка вправо (для кнопок "Все новости", "Читать далее", "Полная таблица") -->
	<symbol id="icon-arrow-right" viewBox="0 0 20 20">
		<path d="M4.16669 10H15.8334" stroke="currentColor" stroke-width="1.67" stroke-linecap="round" stroke-linejoin="round"/>
		<path d="M10 4.16669L15.8333 10L10 15.8334" stroke="currentColor" stroke-width="1.67" stroke-linecap="round" stroke-linejoin="round"/>
	</symbol>

	<!-- Стрелка вправо маленькая (для кнопок "Читать далее") -->
	<symbol id="icon-arrow-right-sm" viewBox="0 0 16 16">
		<path d="M3.33331 8H12.6666" stroke="currentColor" stroke-width="1.33" stroke-linecap="round" stroke-linejoin="round"/>
		<path d="M8 3.33331L12.6667 8L8 12.6666" stroke="currentColor" stroke-width="1.33" stroke-linecap="round" stroke-linejoin="round"/>
	</symbol>

	<!-- Стрелка для баннера (в кнопке) -->
	<symbol id="icon-arrow-banner" viewBox="0 0 24 24">
		<line x1="5" y1="12" x2="19" y2="12" stroke="currentColor" stroke-width="2" stroke-linecap="round" stroke-linejoin="round"/>
		<polyline points="12 5 19 12 12 19" stroke="currentColor" stroke-width="2" stroke-linecap="round" stroke-linejoin="round"/>
	</symbol>

	<!-- Стрелка влево (навигация карусели) -->
	<symbol id="icon-chevron-left" viewBox="0 0 24 24">
		<polyline points="15 18 9 12 15 6" stroke="currentColor" stroke-width="2" stroke-linecap="round" stroke-linejoin="round"/>
	</symbol>

	<!-- Стрелка вправо (навигация карусели) -->
	<symbol id="icon-chevron-right" viewBox="0 0 24 24">
		<polyline points="9 18 15 12 9 6" stroke="currentColor" stroke-width="2" stroke-linecap="round" stroke-linejoin="round"/>
	</symbol>

	<!-- Маркер локации -->
	<symbol id="icon-location" viewBox="0 0 16 16">
		<path d="M13.333 6.667c0 4.666-5.333 8-5.333 8s-5.333-3.334-5.333-8a5.333 5.333 0 1 1 10.666 0Z" stroke="currentColor" stroke-width="1.33" stroke-linecap="round" stroke-linejoin="round"/>
		<circle cx="8" cy="6.667" r="2" stroke="currentColor" stroke-width="1.33"/>
	</symbol>

	<!-- Маркер локации (для last-games, с другими пропорциями) -->
	<symbol id="icon-location-sm" viewBox="0 0 14 14">
		<path d="M11.6667 5.83C11.6667 9.543 7.35 12.576 6.65 13.013C6.55 13.089 6.43 13.13 6.3 13.13C6.17 13.13 6.05 13.089 5.95 13.013C5.25 12.576 0.93 9.543 0.93 5.83C0.93 4.593 1.42 3.406 2.3 2.53C3.18 1.655 4.36 1.164 5.6 1.164C6.84 1.164 8.02 1.655 8.9 2.53C9.78 3.406 10.27 4.593 10.27 5.83Z" stroke="currentColor" stroke-width="1.17" stroke-linecap="round" stroke-linejoin="round"/>
		<circle cx="6.3" cy="5.83" r="1.75" stroke="currentColor" stroke-width="1.17"/>
	</symbol>

	<!-- Facebook -->
	<symbol id="icon-facebook" viewBox="0 0 24 24">
		<path d="M18 2h-3a5 5 0 0 0-5 5v3H7v4h3v8h4v-8h3l1-4h-4V7a1 1 0 0 1 1-1h3z" stroke="currentColor" stroke-width="2" stroke-linecap="round" stroke-linejoin="round" fill="none"/>
	</symbol>

	<!-- Instagram -->
	<symbol id="icon-instagram" viewBox="0 0 1000 1000">
		<path d="M295.42,3.5c-53.2,2.51-89.53,11-121.29,23.48-32.87,12.81-60.73,30-88.45,57.82S40.89,140.5,28.17,173.42c-12.31,31.83-20.65,68.19-23,121.42S2.3,365.18,2.56,500.96,3.42,653.76,6,707.1c2.54,53.19,11,89.51,23.48,121.28,12.83,32.87,30,60.72,57.83,88.45S143,961.59,176,974.33c31.8,12.29,68.17,20.67,121.39,23s70.35,2.87,206.09,2.61,152.83-.86,206.16-3.39S799.1,985.5,830.88,973.08c32.87-12.86,60.74-30,88.45-57.84S964.1,859.5,976.81,826.56c12.32-31.8,20.69-68.17,23-121.35,2.33-53.37,2.88-70.41,2.62-206.17s-.87-152.78-3.4-206.1-11-89.53-23.47-121.32c-12.85-32.87-30-60.7-57.82-88.45S862,38.37,829.07,25.69c-31.82-12.31-68.17-20.7-121.39-23S637.33-.2,501.54.06,348.75.9,295.42,3.5m5.84,903.88c-48.75-2.12-75.22-10.22-92.86-17-23.36-9-40-19.88-57.58-37.29s-28.38-34.11-37.5-57.42c-6.85-17.64-15.1-44.08-17.38-92.83-2.48-52.69-3-68.51-3.29-202s.22-149.29,2.53-202c2.08-48.71,10.23-75.21,17-92.84,9-23.39,19.84-40,37.29-57.57s34.1-28.39,57.43-37.51c17.62-6.88,44.06-15.06,92.79-17.38,52.73-2.5,68.53-3,202-3.29s149.31.21,202.06,2.53c48.71,2.12,75.22,10.19,92.83,17,23.37,9,40,19.81,57.57,37.29s28.4,34.07,37.52,57.45c6.89,17.57,15.07,44,17.37,92.76,2.51,52.73,3.08,68.54,3.32,202s-.23,149.31-2.54,202c-2.13,48.75-10.21,75.23-17,92.89-9,23.35-19.85,40-37.31,57.56s-34.09,28.38-57.43,37.5c-17.6,6.87-44.07,15.07-92.76,17.39-52.73,2.48-68.53,3-202.05,3.29s-149.27-.25-202-2.53m407.6-674.61a60,60,0,1,0,59.88-60.1,60,60,0,0,0-59.88,60.1M245.77,500.5c.28,141.8,115.44,256.49,257.21,256.22S759.52,641.3,759.25,499.5,643.79,243,502,243.26,245.5,358.72,245.77,500.5m90.06-.18a166.67,166.67,0,1,1,167,166.34,166.65,166.65,0,0,1-167-166.34" fill="currentColor"/>
	</symbol>

	<!-- YouTube -->
	<symbol id="icon-youtube" viewBox="0 0 24 24">
		<path d="M2.5 17a24.12 24.12 0 0 1 0-10 2 2 0 0 1 1.4-1.4 49.56 49.56 0 0 1 16.2 0A2 2 0 0 1 21.5 7a24.12 24.12 0 0 1 0 10 2 2 0 0 1-1.4 1.4 49.55 49.55 0 0 1-16.2 0A2 2 0 0 1 2.5 17" stroke="currentColor" stroke-width="2" stroke-linecap="round" stroke-linejoin="round" fill="none"/>
		<path d="m10 15 5-3-5-3z" stroke="currentColor" stroke-width="2" stroke-linecap="round" stroke-linejoin="round" fill="none"/>
	</symbol>

	<!-- Telegram -->
	<symbol id="icon-telegram" viewBox="180 295 560 465">
		<path d="M226.328419,494.722069 C372.088573,431.216685 469.284839,389.350049 517.917216,369.122161 C656.772535,311.36743 685.625481,301.334815 704.431427,301.003532 C708.567621,300.93067 717.815839,301.955743 723.806446,306.816707 C728.864797,310.92121 730.256552,316.46581 730.922551,320.357329 C731.588551,324.248848 732.417879,333.113828 731.758626,340.040666 C724.234007,419.102486 691.675104,610.964674 675.110982,699.515267 C668.10208,736.984342 654.301336,749.547532 640.940618,750.777006 C611.904684,753.448938 589.856115,731.588035 561.733393,713.153237 C517.726886,684.306416 492.866009,666.349181 450.150074,638.200013 C400.78442,605.66878 432.786119,587.789048 460.919462,558.568563 C468.282091,550.921423 596.21508,434.556479 598.691227,424.000355 C599.00091,422.680135 599.288312,417.758981 596.36474,415.160431 C593.441168,412.561881 589.126229,413.450484 586.012448,414.157198 C581.598758,415.158943 511.297793,461.625274 375.109553,553.556189 C355.154858,567.258623 337.080515,573.934908 320.886524,573.585046 C303.033948,573.199351 268.692754,563.490928 243.163606,555.192408 C211.851067,545.013936 186.964484,539.632504 189.131547,522.346309 C190.260287,513.342589 202.659244,504.134509 226.328419,494.722069 Z" fill="currentColor"/>
	</symbol>

	<!-- VK -->
	<symbol id="icon-vk" viewBox="15 28 70 46">
		<path d="M53.2085 72.042C30.4168 72.042 17.4169 56.417 16.8752 30.417H28.2919C28.6669 49.5003 37.0834 57.5836 43.75 59.2503V30.417H54.5004V46.8752C61.0837 46.1669 67.9995 38.667 70.3329 30.417H81.0832C79.2915 40.5837 71.7915 48.0836 66.4582 51.1669C71.7915 53.6669 80.3336 60.2086 83.5836 72.042H71.7499C69.2082 64.1253 62.8754 58.0003 54.5004 57.1669V72.042H53.2085Z" fill="currentColor"/>
	</symbol>

	<!-- Телефон (для контактов) -->
	<symbol id="icon-phone" viewBox="0 0 16 16">
		<path d="M14.667 11.28v2a1.333 1.333 0 0 1-1.454 1.333 13.2 13.2 0 0 1-5.753-2.047 13.007 13.007 0 0 1-4-4 13.2 13.2 0 0 1-2.047-5.78A1.333 1.333 0 0 1 2.74 1.333h2a1.333 1.333 0 0 1 1.333 1.147 8.56 8.56 0 0 0 .467 1.873 1.333 1.333 0 0 1-.3 1.407l-.847.847a10.667 10.667 0 0 0 4 4l.847-.847a1.333 1.333 0 0 1 1.407-.3 8.56 8.56 0 0 0 1.873.467 1.333 1.333 0 0 1 1.147 1.353Z" stroke="currentColor" stroke-width="1.33" stroke-linecap="round" stroke-linejoin="round"/>
	</symbol>

	<!-- Email (для контактов) -->
	<symbol id="icon-email" viewBox="0 0 16 16">
		<path d="M2.667 2.667h10.666c.734 0 1.334.6 1.334 1.333v8c0 .733-.6 1.333-1.334 1.333H2.667c-.734 0-1.334-.6-1.334-1.333V4c0-.733.6-1.333 1.334-1.333Z" stroke="currentColor" stroke-width="1.33" stroke-linecap="round" stroke-linejoin="round"/>
		<path d="m14.667 4-6.667 4.667L1.333 4" stroke="currentColor" stroke-width="1.33" stroke-linecap="round" stroke-linejoin="round"/>
	</symbol>

	<!-- Адрес/Локация (для контактов) -->
	<symbol id="icon-address" viewBox="0 0 16 16">
		<path d="M14 6.667c0 4.666-6 8.666-6 8.666s-6-4-6-8.666a6 6 0 1 1 12 0Z" stroke="currentColor" stroke-width="1.33" stroke-linecap="round" stroke-linejoin="round"/>
		<circle cx="8" cy="6.667" r="2" stroke="currentColor" stroke-width="1.33"/>
	</symbol>

	<!-- Часы (для контактов) -->
	<symbol id="icon-clock" viewBox="0 0 16 16">
		<circle cx="8" cy="8" r="6.667" stroke="currentColor" stroke-width="1.33" stroke-linecap="round" stroke-linejoin="round"/>
		<path d="M8 4v4l2.667 1.333" stroke="currentColor" stroke-width="1.33" stroke-linecap="round" stroke-linejoin="round"/>
	</symbol>

	<!-- Placeholder для команд (белый квадрат) -->
	<symbol id="icon-team-placeholder" viewBox="0 0 48 48">
		<rect width="48" height="48" fill="currentColor"/>
	</symbol>
</svg>
