<svg xmlns="http://www.w3.org/2000/svg" style="display: none;">
	<!-- Стрелка вправо (для кнопок "Все новости", "Читать далее", "Полная таблица") -->
	<symbol id="icon-arrow-right" viewBox="0 0 24 24">
		<path fill="#FF1A1A" d="M24 16.66l0 -9.32c0,-1.27 -0.13,-2.21 -0.49,-3.18 -0.32,-0.98 -1.04,-2.05 -1.85,-2.67 -0.52,-0.42 -1.07,-0.74 -1.75,-1 -0.91,-0.33 -1.95,-0.49 -3.22,-0.49l-9.42 0c-1.2,0 -2.2,0.16 -3.15,0.49 -1.33,0.45 -2.27,1.26 -3.05,2.43 -0.81,1.17 -1.07,2.93 -1.07,4.48l0 9.13c0,4.87 2.5,7.47 7.34,7.47l9.32 0c1.53,0 3.25,-0.29 4.42,-1.07 2.21,-1.46 2.92,-3.54 2.92,-6.27l0 0z"/>
		<path fill="white" d="M13.15 11.89l-4.15 -4.23c-0.39,-0.35 -1.17,-1 -1.17,-1.65 0,-1.11 1.23,-1.98 2.43,-0.65l1.07 1.1c0.98,0.94 3.15,3.28 3.87,3.87 2.01,1.69 0.97,2.27 -0.46,3.7l-4.57 4.61c-0.33,0.33 -0.59,0.65 -1.21,0.65 -0.68,0 -1.3,-0.58 -1.3,-1.27 0,-0.84 0.72,-1.33 1.17,-1.75 0.59,-0.62 4.1,-4.06 4.32,-4.38l0 0z"/>
	</symbol>	

	<!-- Стрелка для баннера (в кнопке) -->
	<symbol id="icon-arrow-banner" viewBox="0 0 24 24">
		<line x1="5" y1="12" x2="19" y2="12" stroke="currentColor" stroke-width="2" stroke-linecap="round" stroke-linejoin="round"/>
		<polyline points="12 5 19 12 12 19" stroke="currentColor" stroke-width="2" stroke-linecap="round" stroke-linejoin="round"/>
	</symbol>

	<!-- Стрелка влево (навигация карусели) -->
	<symbol id="icon-chevron-left" viewBox="0 0 24 24">
		<polyline points="15 18 9 12 15 6" stroke="currentColor" stroke-width="2" stroke-linecap="round" stroke-linejoin="round"/>
	</symbol>

	<!-- Стрелка вправо (навигация карусели) -->
	<symbol id="icon-chevron-right" viewBox="0 0 24 24">
		<polyline points="9 18 15 12 9 6" stroke="currentColor" stroke-width="2" stroke-linecap="round" stroke-linejoin="round"/>
	</symbol>

	<!-- Маркер локации -->
	<symbol id="icon-location" viewBox="0 0 24 24">
		<path d="M13.333 6.667c0 4.666-5.333 8-5.333 8s-5.333-3.334-5.333-8a5.333 5.333 0 1 1 10.666 0Z" stroke="currentColor" stroke-width="1.33" stroke-linecap="round" stroke-linejoin="round"/>
		<circle cx="8" cy="6.667" r="2" stroke="currentColor" stroke-width="1.33"/>
	</symbol>

	<!-- Маркер локации (для last-games, с другими пропорциями) -->
	<symbol id="icon-location-sm" viewBox="0 0 14 14">
		<path d="M11.6667 5.83C11.6667 9.543 7.35 12.576 6.65 13.013C6.55 13.089 6.43 13.13 6.3 13.13C6.17 13.13 6.05 13.089 5.95 13.013C5.25 12.576 0.93 9.543 0.93 5.83C0.93 4.593 1.42 3.406 2.3 2.53C3.18 1.655 4.36 1.164 5.6 1.164C6.84 1.164 8.02 1.655 8.9 2.53C9.78 3.406 10.27 4.593 10.27 5.83Z" stroke="currentColor" stroke-width="1.17" stroke-linecap="round" stroke-linejoin="round"/>
		<circle cx="6.3" cy="5.83" r="1.75" stroke="currentColor" stroke-width="1.17"/>
	</symbol>

	<!-- Facebook -->
	<symbol id="icon-facebook" viewBox="0 0 24 24">
		<path d="M18 2h-3a5 5 0 0 0-5 5v3H7v4h3v8h4v-8h3l1-4h-4V7a1 1 0 0 1 1-1h3z" stroke="currentColor" stroke-width="2" stroke-linecap="round" stroke-linejoin="round" fill="none"/>
	</symbol>

	<!-- Instagram -->
	<symbol id="icon-instagram" viewBox="0 0 1000 1000">
		<path d="M295.42,3.5c-53.2,2.51-89.53,11-121.29,23.48-32.87,12.81-60.73,30-88.45,57.82S40.89,140.5,28.17,173.42c-12.31,31.83-20.65,68.19-23,121.42S2.3,365.18,2.56,500.96,3.42,653.76,6,707.1c2.54,53.19,11,89.51,23.48,121.28,12.83,32.87,30,60.72,57.83,88.45S143,961.59,176,974.33c31.8,12.29,68.17,20.67,121.39,23s70.35,2.87,206.09,2.61,152.83-.86,206.16-3.39S799.1,985.5,830.88,973.08c32.87-12.86,60.74-30,88.45-57.84S964.1,859.5,976.81,826.56c12.32-31.8,20.69-68.17,23-121.35,2.33-53.37,2.88-70.41,2.62-206.17s-.87-152.78-3.4-206.1-11-89.53-23.47-121.32c-12.85-32.87-30-60.7-57.82-88.45S862,38.37,829.07,25.69c-31.82-12.31-68.17-20.7-121.39-23S637.33-.2,501.54.06,348.75.9,295.42,3.5m5.84,903.88c-48.75-2.12-75.22-10.22-92.86-17-23.36-9-40-19.88-57.58-37.29s-28.38-34.11-37.5-57.42c-6.85-17.64-15.1-44.08-17.38-92.83-2.48-52.69-3-68.51-3.29-202s.22-149.29,2.53-202c2.08-48.71,10.23-75.21,17-92.84,9-23.39,19.84-40,37.29-57.57s34.1-28.39,57.43-37.51c17.62-6.88,44.06-15.06,92.79-17.38,52.73-2.5,68.53-3,202-3.29s149.31.21,202.06,2.53c48.71,2.12,75.22,10.19,92.83,17,23.37,9,40,19.81,57.57,37.29s28.4,34.07,37.52,57.45c6.89,17.57,15.07,44,17.37,92.76,2.51,52.73,3.08,68.54,3.32,202s-.23,149.31-2.54,202c-2.13,48.75-10.21,75.23-17,92.89-9,23.35-19.85,40-37.31,57.56s-34.09,28.38-57.43,37.5c-17.6,6.87-44.07,15.07-92.76,17.39-52.73,2.48-68.53,3-202.05,3.29s-149.27-.25-202-2.53m407.6-674.61a60,60,0,1,0,59.88-60.1,60,60,0,0,0-59.88,60.1M245.77,500.5c.28,141.8,115.44,256.49,257.21,256.22S759.52,641.3,759.25,499.5,643.79,243,502,243.26,245.5,358.72,245.77,500.5m90.06-.18a166.67,166.67,0,1,1,167,166.34,166.65,166.65,0,0,1-167-166.34" fill="currentColor"/>
	</symbol>

	<!-- YouTube -->
	<symbol id="icon-youtube" viewBox="0 0 24 24">
		<path d="M2.5 17a24.12 24.12 0 0 1 0-10 2 2 0 0 1 1.4-1.4 49.56 49.56 0 0 1 16.2 0A2 2 0 0 1 21.5 7a24.12 24.12 0 0 1 0 10 2 2 0 0 1-1.4 1.4 49.55 49.55 0 0 1-16.2 0A2 2 0 0 1 2.5 17" stroke="currentColor" stroke-width="2" stroke-linecap="round" stroke-linejoin="round" fill="none"/>
		<path d="m10 15 5-3-5-3z" stroke="currentColor" stroke-width="2" stroke-linecap="round" stroke-linejoin="round" fill="none"/>
	</symbol>

	<!-- Telegram -->
	<symbol id="icon-telegram" viewBox="180 295 560 465">
		<path d="M226.328419,494.722069 C372.088573,431.216685 469.284839,389.350049 517.917216,369.122161 C656.772535,311.36743 685.625481,301.334815 704.431427,301.003532 C708.567621,300.93067 717.815839,301.955743 723.806446,306.816707 C728.864797,310.92121 730.256552,316.46581 730.922551,320.357329 C731.588551,324.248848 732.417879,333.113828 731.758626,340.040666 C724.234007,419.102486 691.675104,610.964674 675.110982,699.515267 C668.10208,736.984342 654.301336,749.547532 640.940618,750.777006 C611.904684,753.448938 589.856115,731.588035 561.733393,713.153237 C517.726886,684.306416 492.866009,666.349181 450.150074,638.200013 C400.78442,605.66878 432.786119,587.789048 460.919462,558.568563 C468.282091,550.921423 596.21508,434.556479 598.691227,424.000355 C599.00091,422.680135 599.288312,417.758981 596.36474,415.160431 C593.441168,412.561881 589.126229,413.450484 586.012448,414.157198 C581.598758,415.158943 511.297793,461.625274 375.109553,553.556189 C355.154858,567.258623 337.080515,573.934908 320.886524,573.585046 C303.033948,573.199351 268.692754,563.490928 243.163606,555.192408 C211.851067,545.013936 186.964484,539.632504 189.131547,522.346309 C190.260287,513.342589 202.659244,504.134509 226.328419,494.722069 Z" fill="currentColor"/>
	</symbol>

	<!-- VK -->
	<symbol id="icon-vk" viewBox="15 28 70 46">
		<path d="M53.2085 72.042C30.4168 72.042 17.4169 56.417 16.8752 30.417H28.2919C28.6669 49.5003 37.0834 57.5836 43.75 59.2503V30.417H54.5004V46.8752C61.0837 46.1669 67.9995 38.667 70.3329 30.417H81.0832C79.2915 40.5837 71.7915 48.0836 66.4582 51.1669C71.7915 53.6669 80.3336 60.2086 83.5836 72.042H71.7499C69.2082 64.1253 62.8754 58.0003 54.5004 57.1669V72.042H53.2085Z" fill="currentColor"/>
	</symbol>

	<!-- Телефон (для контактов) -->
	<symbol id="icon-phone" viewBox="0 0 24 24">
		<g id="Слой_x0020_1">
			<metadata id="CorelCorpID_0Corel-Layer"/>
			<path fill="none" stroke="currentColor" stroke-width="2.18" stroke-linecap="round" stroke-linejoin="round" stroke-miterlimit="22.9256" d="M14 16.98c0.22,0.11 0.48,0.13 0.72,0.07 0.24,-0.06 0.45,-0.2 0.6,-0.4l0.39 -0.5c0.2,-0.28 0.47,-0.5 0.77,-0.65 0.3,-0.15 0.64,-0.23 0.97,-0.23l3.28 0c0.58,0 1.13,0.23 1.54,0.64 0.41,0.41 0.64,0.97 0.64,1.54l0 3.28c0,0.58 -0.23,1.13 -0.64,1.54 -0.41,0.41 -0.96,0.64 -1.54,0.64 -5.21,0 -10.21,-2.07 -13.89,-5.75 -3.68,-3.68 -5.75,-8.68 -5.75,-13.89 0,-0.58 0.23,-1.13 0.64,-1.54 0.41,-0.41 0.96,-0.64 1.54,-0.64l3.28 0c0.57,0 1.13,0.23 1.54,0.64 0.41,0.41 0.64,0.96 0.64,1.54l0 3.28c0,0.33 -0.08,0.67 -0.23,0.97 -0.15,0.3 -0.37,0.57 -0.65,0.77l-0.51 0.38c-0.2,0.16 -0.34,0.37 -0.4,0.62 -0.05,0.24 -0.02,0.5 0.09,0.73 1.49,3.03 3.94,5.48 6.97,6.96z"/>
		</g>
	</symbol>

	<!-- Email (для контактов) -->
	<symbol id="icon-email" viewBox="0 0 24 19.64">
		<g id="Слой_x0020_1">
			<metadata id="CorelCorpID_0Corel-Layer"/>
			<path fill="none" stroke="currentColor" stroke-width="2.18" stroke-linecap="round" stroke-linejoin="round" stroke-miterlimit="22.9256" d="M22.91 4.36l-9.81 6.25c-0.33,0.19 -0.71,0.3 -1.1,0.3 -0.38,0 -0.76,-0.11 -1.09,-0.3l-9.82 -6.25"/>
			<path fill="none" stroke="currentColor" stroke-width="2.18" stroke-linecap="round" stroke-linejoin="round" stroke-miterlimit="22.9256" d="M20.73 1.09l-17.46 0c-1.2,0 -2.18,0.98 -2.18,2.18l0 13.09c0,1.21 0.98,2.18 2.18,2.18l17.46 0c1.2,0 2.18,-0.97 2.18,-2.18l0 -13.09c0,-1.2 -0.98,-2.18 -2.18,-2.18z"/>
		</g>
	</symbol>

	<!-- Часы (для контактов) -->
	<symbol id="icon-clock" viewBox="0 0 24 24">
		<g id="Слой_x0020_1">
			<metadata id="CorelCorpID_0Corel-Layer"/>
			<polyline fill="none" stroke="currentColor" stroke-width="2.18" stroke-linecap="round" stroke-linejoin="round" stroke-miterlimit="22.9256" points="12,5.46 12,12 16.36,14.18"/>
			<path fill="none" stroke="currentColor" stroke-width="2.18" stroke-linecap="round" stroke-linejoin="round" stroke-miterlimit="22.9256" d="M12 22.91c6.02,0 10.91,-4.89 10.91,-10.91 0,-6.02 -4.89,-10.91 -10.91,-10.91 -6.02,0 -10.91,4.89 -10.91,10.91 0,6.02 4.89,10.91 10.91,10.91z"/>
		</g>
	</symbol>

	<!-- Метка места (локация) -->
	<symbol id="icon-place" viewBox="0 0 24 29.33">
		<g id="Слой_x0020_1">
			<metadata id="CorelCorpID_0Corel-Layer"/>
			<path fill="none" stroke="currentColor" stroke-width="2.67" stroke-linecap="round" stroke-linejoin="round" stroke-miterlimit="22.9256" d="M22.67 12c0,6.66 -7.39,13.59 -9.87,15.73 -0.23,0.18 -0.51,0.27 -0.8,0.27 -0.29,0 -0.57,-0.09 -0.8,-0.27 -2.48,-2.14 -9.87,-9.07 -9.87,-15.73 0,-2.83 1.13,-5.54 3.13,-7.54 2,-2 4.71,-3.13 7.54,-3.13 2.83,0 5.54,1.13 7.54,3.13 2,2 3.13,4.71 3.13,7.54z"/>
			<path fill="none" stroke="currentColor" stroke-width="2.67" stroke-linecap="round" stroke-linejoin="round" stroke-miterlimit="22.9256" d="M12 16c2.21,0 4,-1.79 4,-4 0,-2.21 -1.79,-4 -4,-4 -2.21,0 -4,1.79 -4,4 0,2.21 1.79,4 4,4z"/>
		</g>
	</symbol>

	<!-- Люди (для зрителей) -->
	<symbol id="icon-people" viewBox="0 0 24 21.82">
		<g id="Слой_x0020_1">
			<metadata id="CorelCorpID_0Corel-Layer"/>
			<path fill="none" stroke="currentColor" stroke-width="2.18" stroke-linecap="round" stroke-linejoin="round" stroke-miterlimit="22.9256" d="M16.36 20.73l0 -2.18c0,-1.16 -0.46,-2.27 -1.27,-3.09 -0.82,-0.82 -1.93,-1.28 -3.09,-1.28l-6.55 0c-1.15,0 -2.26,0.46 -3.08,1.28 -0.82,0.82 -1.28,1.93 -1.28,3.09l0 2.18"/>
			<path fill="none" stroke="currentColor" stroke-width="2.18" stroke-linecap="round" stroke-linejoin="round" stroke-miterlimit="22.9256" d="M16.36 1.23c0.94,0.24 1.77,0.79 2.36,1.55 0.59,0.77 0.91,1.71 0.91,2.67 0,0.97 -0.32,1.91 -0.91,2.68 -0.59,0.76 -1.42,1.31 -2.36,1.55"/>
			<path fill="none" stroke="currentColor" stroke-width="2.18" stroke-linecap="round" stroke-linejoin="round" stroke-miterlimit="22.9256" d="M22.91 20.73l0 -2.18c0,-0.97 -0.32,-1.91 -0.92,-2.67 -0.59,-0.77 -1.42,-1.31 -2.35,-1.56"/>
			<path fill="none" stroke="currentColor" stroke-width="2.18" stroke-linecap="round" stroke-linejoin="round" stroke-miterlimit="22.9256" d="M8.73 9.82c2.41,0 4.36,-1.95 4.36,-4.37 0,-2.41 -1.95,-4.36 -4.36,-4.36 -2.41,0 -4.37,1.95 -4.37,4.36 0,2.42 1.96,4.37 4.37,4.37z"/>
		</g>
	</symbol>

	<!-- Placeholder для команд (белый квадрат) -->
	<symbol id="icon-team-placeholder" viewBox="0 0 48 48">
		<rect width="48" height="48" fill="currentColor"/>
	</symbol>

	<!-- Отчет/документ (для отчета о матче) -->
	<symbol id="icon-report" viewBox="0 0 24 29.33">
		<g id="Слой_x0020_1">
			<metadata id="CorelCorpID_0Corel-Layer"/>
			<path fill="none" stroke="currentColor" stroke-width="2.67" stroke-linecap="round" stroke-linejoin="round" stroke-miterlimit="22.9256" d="M16 1.33l-12 0c-0.71,0 -1.38,0.28 -1.89,0.78 -0.5,0.5 -0.78,1.18 -0.78,1.89l0 21.33c0,0.71 0.28,1.39 0.78,1.89 0.51,0.5 1.18,0.78 1.89,0.78l16 0c0.71,0 1.38,-0.28 1.89,-0.78 0.5,-0.5 0.78,-1.18 0.78,-1.89l0 -17.33 -6.67 -6.67z"/>
			<path fill="none" stroke="currentColor" stroke-width="2.67" stroke-linecap="round" stroke-linejoin="round" stroke-miterlimit="22.9256" d="M14.67 1.33l0 5.34c0,0.7 0.28,1.38 0.78,1.88 0.5,0.5 1.18,0.78 1.88,0.78l5.34 0"/>
			<line fill="none" stroke="currentColor" stroke-width="2.67" stroke-linecap="round" stroke-linejoin="round" stroke-miterlimit="22.9256" x1="9.33" y1="10.67" x2="6.67" y2="10.67"/>
			<line fill="none" stroke="currentColor" stroke-width="2.67" stroke-linecap="round" stroke-linejoin="round" stroke-miterlimit="22.9256" x1="17.33" y1="16" x2="6.67" y2="16"/>
			<line fill="none" stroke="currentColor" stroke-width="2.67" stroke-linecap="round" stroke-linejoin="round" stroke-miterlimit="22.9256" x1="17.33" y1="21.33" x2="6.67" y2="21.33"/>
		</g>
	</symbol>

	<!-- События/молния (для событий матча) -->
	<symbol id="icon-event" viewBox="0 0 24 26.4">
		<g id="Слой_x0020_1">
			<metadata id="CorelCorpID_0Corel-Layer"/>
			<path fill="none" stroke="currentColor" stroke-width="2.4" stroke-linecap="round" stroke-linejoin="round" stroke-miterlimit="22.9256" d="M2.4 15.6c-0.22,0 -0.45,-0.06 -0.64,-0.19 -0.19,-0.12 -0.34,-0.29 -0.44,-0.49 -0.1,-0.21 -0.14,-0.44 -0.11,-0.66 0.02,-0.23 0.11,-0.44 0.26,-0.62l11.87 -12.23c0.09,-0.11 0.21,-0.18 0.35,-0.2 0.13,-0.02 0.27,0 0.39,0.06 0.12,0.06 0.21,0.17 0.27,0.29 0.05,0.13 0.06,0.27 0.03,0.4l-2.31 7.22c-0.07,0.18 -0.09,0.38 -0.06,0.57 0.02,0.19 0.09,0.38 0.2,0.54 0.11,0.15 0.26,0.29 0.43,0.37 0.17,0.09 0.37,0.14 0.56,0.14l8.4 0c0.22,0 0.45,0.06 0.64,0.18 0.19,0.12 0.34,0.3 0.44,0.5 0.1,0.21 0.14,0.43 0.11,0.66 -0.02,0.23 -0.11,0.44 -0.26,0.62l-11.87 12.23c-0.09,0.1 -0.21,0.17 -0.35,0.2 -0.13,0.02 -0.27,0 -0.39,-0.06 -0.12,-0.07 -0.21,-0.17 -0.27,-0.3 -0.05,-0.12 -0.06,-0.26 -0.03,-0.39l2.31 -7.22c0.07,-0.18 0.09,-0.38 0.06,-0.57 -0.02,-0.19 -0.09,-0.38 -0.2,-0.54 -0.11,-0.16 -0.26,-0.29 -0.43,-0.38 -0.17,-0.09 -0.37,-0.13 -0.56,-0.13l-8.4 0z"/>
		</g>
	</symbol>

	<!-- Стрелка вниз (для кнопок раскрытия - закрытое состояние "Показать все события") -->
	<symbol id="icon-arrow-down" viewBox="0 0 24 24">
		<path fill="#FF1A1A" d="M7.33 24l9.3 0c1.26,0 2.25,-0.14 3.19,-0.49 0.99,-0.32 2.07,-1.05 2.71,-1.83 0.42,-0.56 0.73,-1.12 0.98,-1.79 0.31,-0.91 0.49,-1.93 0.49,-3.19l0 -9.4c0,-1.23 -0.18,-2.25 -0.49,-3.16 -0.46,-1.37 -1.26,-2.32 -2.42,-3.09 -1.2,-0.77 -2.91,-1.05 -4.49,-1.05l-9.16 0c-4.84,0 -7.44,2.49 -7.44,7.33l0 9.3c0,1.58 0.28,3.26 1.05,4.46 1.48,2.17 3.58,2.91 6.28,2.91l0 0z"/>
		<path fill="white" d="M12.11 13.16l4.21 -4.18c0.35,-0.38 1.01,-1.16 1.68,-1.16 1.09,0 1.96,1.23 0.63,2.43l-1.09 1.08c-0.94,0.95 -3.29,3.16 -3.89,3.86 -1.69,2 -2.25,0.99 -3.68,-0.45l-4.6 -4.6c-0.32,-0.32 -0.67,-0.56 -0.67,-1.19 0,-0.67 0.56,-1.27 1.3,-1.27 0.81,0 1.3,0.71 1.72,1.13 0.6,0.59 4.07,4.1 4.39,4.35l0 0z"/>
	</symbol>

	<!-- Стрелка вверх (для кнопок раскрытия - открытое состояние "Скрыть события") -->
	<symbol id="icon-arrow-up" viewBox="0 0 24 24">
		<path fill="#FF1A1A" d="M4.7 0l-2.63 0c-0.35,0 -0.62,0.04 -0.89,0.13 -0.29,0.1 -0.59,0.3 -0.76,0.52 -0.12,0.16 -0.21,0.32 -0.28,0.5 -0.09,0.26 -0.14,0.55 -0.14,0.91l0 2.65c0,0.35 0.04,0.63 0.14,0.9 0.13,0.37 0.36,0.64 0.68,0.86 0.34,0.22 0.83,0.3 1.27,0.3l2.58 0c1.37,0 2.1,-0.7 2.1,-2.07l0 -2.63c0,-0.43 -0.08,-0.92 -0.3,-1.25 -0.42,-0.62 -1,-0.82 -1.77,-0.82z"/>
		<path fill="white" d="M3.35 3.06l-1.18 1.18c-0.11,0.1 -0.29,0.32 -0.48,0.32 -0.3,0 -0.55,-0.34 -0.18,-0.68l0.31 -0.31c0.27,-0.27 0.93,-0.89 1.09,-1.09 0.48,-0.57 0.64,-0.28 1.05,0.13l1.3 1.3c0.09,0.09 0.19,0.16 0.19,0.33 0,0.19 -0.17,0.37 -0.37,0.37 -0.23,0 -0.37,-0.2 -0.49,-0.33 -0.17,-0.17 -1.14,-1.16 -1.24,-1.22z"/>
	</symbol>

	<!-- Стрелка влево (для кнопок навигации - предыдущий) -->
	<symbol id="icon-arrow-left" viewBox="0 0 24 24">
		<path fill="#FF1A1A" d="M0 2.08l0 2.64c0,0.36 0.04,0.63 0.13,0.9 0.1,0.28 0.3,0.59 0.53,0.76 0.15,0.12 0.31,0.21 0.5,0.28 0.26,0.09 0.55,0.14 0.91,0.14l2.67 0c0.34,0 0.63,-0.04 0.89,-0.13 0.38,-0.14 0.65,-0.37 0.87,-0.69 0.23,-0.34 0.3,-0.83 0.3,-1.28l0 -2.59c0,-1.37 -0.7,-2.11 -2.08,-2.11l-2.64 0c-0.44,0 -0.92,0.08 -1.25,0.3 -0.63,0.42 -0.83,1.01 -0.83,1.78z"/>
		<path fill="white" d="M3.07 3.43l1.19 1.2c0.1,0.1 0.32,0.29 0.32,0.47 0,0.31 -0.34,0.56 -0.68,0.18l-0.31 -0.31c-0.27,-0.26 -0.9,-0.93 -1.09,-1.1 -0.58,-0.48 -0.29,-0.64 0.12,-1.05l1.3 -1.3c0.1,-0.09 0.17,-0.19 0.34,-0.19 0.19,0 0.37,0.17 0.37,0.37 0,0.23 -0.2,0.37 -0.33,0.49 -0.17,0.17 -1.16,1.15 -1.23,1.24z"/>
	</symbol>

	<!-- Календарь -->
	<symbol id="icon-calendar" viewBox="0 0 24 24.7">
		<g id="Слой_x0020_1">
			<metadata id="CorelCorpID_0Corel-Layer"/>
			<path fill="#25292A" fill-rule="nonzero" stroke="currentColor" stroke-width="0.55" stroke-miterlimit="22.9256" d="M22.04 24.04l-20.09 0c-0.7,0 -1.29,-0.57 -1.29,-1.29l0 -14.95 22.68 0 0 14.95c0,0.72 -0.59,1.29 -1.3,1.29zm-20.09 -20.88l0.51 0 0 1.68c0,0.46 0.38,0.83 0.82,0.83 0.46,0 0.83,-0.37 0.83,-0.83l0 -1.68 2.7 0 0 1.68c0,0.46 0.37,0.83 0.83,0.83 0.46,0 0.83,-0.37 0.83,-0.83l0 -1.68 2.7 0 0 1.68c0,0.46 0.37,0.83 0.83,0.83 0.45,0 0.83,-0.37 0.83,-0.83l0 -1.68 2.7 0 0 1.68c0,0.46 0.37,0.83 0.83,0.83 0.44,0 0.83,-0.37 0.83,-0.83l0 -1.68 2.68 0 0 1.68c0,0.46 0.39,0.83 0.83,0.83 0.46,0 0.83,-0.37 0.83,-0.83l0 -1.68 0.51 0c0.71,0 1.3,0.57 1.3,1.28l0 2.96 -22.68 0 0 -2.96c0,-0.71 0.59,-1.28 1.29,-1.28l0 0zm0.9 -2.06c0,-0.23 0.19,-0.44 0.43,-0.44 0.26,0 0.45,0.21 0.45,0.44l0 3.74c0,0.26 -0.19,0.45 -0.45,0.45 -0.24,0 -0.43,-0.19 -0.43,-0.45l0 -3.74zm4.79 -0.44c0.24,0 0.45,0.21 0.45,0.44l0 3.74c0,0.26 -0.21,0.45 -0.45,0.45 -0.24,0 -0.44,-0.19 -0.44,-0.45l0 -1.88c0,0 0,0 0,0 0,0 0,0 0,0l0 -1.86c0,-0.23 0.2,-0.44 0.44,-0.44zm4.36 0c0.24,0 0.45,0.21 0.45,0.44l0 1.86c0,0 0,0 0,0 0,0 0,0 0,0l0 1.88c0,0.26 -0.21,0.45 -0.45,0.45 -0.25,0 -0.45,-0.19 -0.45,-0.45l0 -1.88c0,0 0,0 0,0 0,0 0,0 0,0l0 -1.86c0,-0.23 0.2,-0.44 0.45,-0.44zm3.91 0.44c0,-0.23 0.19,-0.44 0.45,-0.44 0.24,0 0.43,0.21 0.43,0.44l0 1.86c0,0 0,0 0,0 0,0 0,0 0,0l0 1.88c0,0.26 -0.19,0.45 -0.43,0.45 -0.26,0 -0.45,-0.19 -0.45,-0.45l0 -3.74zm4.35 0c0,-0.23 0.2,-0.44 0.44,-0.44 0.25,0 0.45,0.21 0.45,0.44l0 3.74c0,0.26 -0.2,0.45 -0.45,0.45 -0.24,0 -0.44,-0.19 -0.44,-0.45l0 -3.74zm3.46 3.34c0,-0.92 -0.76,-1.67 -1.68,-1.67l-0.51 0 0 -1.67c0,-0.46 -0.37,-0.82 -0.83,-0.82 -0.44,0 -0.83,0.36 -0.83,0.82l0 1.67 -2.68 0 0 -1.67c0,-0.46 -0.39,-0.82 -0.83,-0.82 -0.46,0 -0.83,0.36 -0.83,0.82l0 1.67 -2.7 0 0 -1.67c0,-0.46 -0.39,-0.82 -0.83,-0.82 -0.46,0 -0.83,0.36 -0.83,0.82l0 1.67 -2.7 0 0 -1.67c0,-0.46 -0.37,-0.82 -0.83,-0.82 -0.46,0 -0.83,0.36 -0.83,0.82l0 1.67 -2.7 0 0 -1.67c0,-0.46 -0.37,-0.82 -0.83,-0.82 -0.44,0 -0.82,0.36 -0.82,0.82l0 1.67 -0.51 0c-0.93,0 -1.67,0.75 -1.67,1.67l0 3.15c0,0 0,0 0,0l0 15.16c0,0.92 0.74,1.67 1.67,1.67l20.09 0c0.92,0 1.68,-0.75 1.68,-1.67l0 -15.16c0,0 0,0 0,0l0 -3.15 0 0z"/>
		</g>
	</symbol>

	<!-- Карта (для контактов) -->
	<symbol id="icon-map" viewBox="0 0 25.2 25.2">
		<g id="Слой_x0020_1">
			<metadata id="CorelCorpID_0Corel-Layer"/>
			<polygon fill="none" stroke="currentColor" stroke-width="2.4" stroke-linecap="round" stroke-linejoin="round" stroke-miterlimit="22.9256" points="1.2,12 24,1.2 13.2,24 10.8,14.4 "/>
		</g>
	</symbol>

	<!-- Машина (для транспорта) -->
	<symbol id="icon-car" viewBox="0 0 38 24.18">
		<g id="Слой_x0020_1">
			<metadata id="CorelCorpID_0Corel-Layer"/>
			<path fill="none" stroke="currentColor" stroke-width="3.45" stroke-linecap="round" stroke-linejoin="round" stroke-miterlimit="22.9256" d="M31.09 19l3.46 0c1.03,0 1.72,-0.69 1.72,-1.73l0 -5.18c0,-1.55 -1.21,-2.94 -2.59,-3.28 -3.11,-0.87 -7.77,-1.9 -7.77,-1.9 0,0 -2.25,-2.42 -3.8,-3.97 -0.86,-0.69 -1.9,-1.21 -3.11,-1.21l-12.09 0c-1.04,0 -1.9,0.69 -2.42,1.55l-2.42 5.01c-0.23,0.67 -0.34,1.37 -0.34,2.07l0 6.91c0,1.04 0.69,1.73 1.72,1.73l3.46 0"/>
			<path fill="none" stroke="currentColor" stroke-width="3.45" stroke-linecap="round" stroke-linejoin="round" stroke-miterlimit="22.9256" d="M10.36 22.45c1.91,0 3.46,-1.54 3.46,-3.45 0,-1.91 -1.55,-3.45 -3.46,-3.45 -1.9,0 -3.45,1.54 -3.45,3.45 0,1.91 1.55,3.45 3.45,3.45z"/>
			<line fill="none" stroke="currentColor" stroke-width="3.45" stroke-linecap="round" stroke-linejoin="round" stroke-miterlimit="22.9256" x1="13.82" y1="19" x2="24.18" y2= "19" />
			<path fill="none" stroke="currentColor" stroke-width="3.45" stroke-linecap="round" stroke-linejoin="round" stroke-miterlimit="22.9256" d="M27.64 22.45c1.9,0 3.45,-1.54 3.45,-3.45 0,-1.91 -1.55,-3.45 -3.45,-3.45 -1.91,0 -3.46,1.54 -3.46,3.45 0,1.91 1.55,3.45 3.46,3.45z"/>
		</g>
	</symbol>

	<!-- Гаечный ключ (для технического обслуживания) -->
	<symbol id="icon-spanner" viewBox="0 0 24 24">
		<path d="M14.7 6.3C14.5472 6.15422 14.3378 6.06885 14.1197 6.06885C13.9015 6.06885 13.6921 6.15422 13.5394 6.3L12.2061 7.63333C12.0504 7.78902 11.941 7.99843 11.941 8.21655C11.941 8.43468 12.0504 8.64409 12.2061 8.79978L9.61806 11.388C9.63106 11.2395 9.63744 11.0895 9.63744 10.938C9.63744 10.0373 9.27894 9.17078 8.63694 8.52878C7.99494 7.88678 7.12838 7.52828 6.22758 7.52828C5.32678 7.52828 4.46022 7.88678 3.81822 8.52878C3.17622 9.17078 2.81772 10.0373 2.81772 10.938C2.81772 11.8388 3.17622 12.7053 3.81822 13.3473C4.46022 13.9893 5.32678 14.3478 6.22758 14.3478C7.07883 14.3478 7.88133 14.0388 8.46883 13.462L8.47133 13.464C8.54394 13.5373 8.61383 13.6106 8.69206 13.6816C8.77028 13.7526 8.85425 13.8213 8.94647 13.8872C9.76647 14.4705 10.6452 14.894 11.5827 15.1216C12.5202 15.3493 13.5084 15.3762 14.4596 15.2003C15.4109 15.0244 16.3089 14.6497 17.0932 14.1054C17.8775 13.5612 18.5289 12.8658 19 12.0727L21.5883 9.48453C21.8556 9.21786 21.7706 8.76619 21.4056 8.66619C20.4898 8.41453 19.5213 8.42894 18.6133 8.70753C17.7052 8.98612 16.8955 9.51753 16.2785 10.2395C15.6616 10.9615 15.2631 11.8443 15.1296 12.7845C14.996 13.7248 15.1331 14.6837 15.5244 15.55L9.17271 21.8919C8.84118 22.2234 8.39159 22.4096 7.92283 22.4097C7.45406 22.4097 7.00447 22.2236 6.67294 21.8921C6.34141 21.5605 6.15532 21.1109 6.15541 20.6421C6.1555 20.1734 6.34159 19.7238 6.67312 19.3923L13.2648 12.8007C12.8732 12.409 12.5644 11.9531 12.3597 11.451C12.1549 10.9488 12.0577 10.411 12.0727 9.86903C12.0877 9.32706 12.2143 8.79429 12.4446 8.30356C12.675 7.81283 13.0057 7.37479 13.4177 7.01697Z" stroke="currentColor" stroke-width="2" stroke-linecap="round" stroke-linejoin="round" fill="none"/>
	</symbol>

	<!-- Гантель (для тренажерного зала) -->
	<symbol id="icon-dumbbell" viewBox="0 0 24 24">
		<g id="Слой_x0020_1">
			<metadata id="CorelCorpID_0Corel-Layer"/>
			<path fill="none" stroke="currentColor" stroke-width="2.17" stroke-linecap="round" stroke-linejoin="round" stroke-miterlimit="22.9256" d="M18.07 12.83c0.4,0.41 0.95,0.64 1.53,0.64 0.57,0 1.13,-0.23 1.53,-0.64 0.41,-0.4 0.64,-0.96 0.64,-1.53 0,-0.58 -0.23,-1.13 -0.64,-1.53l-1.91 -1.92c0.4,0.41 0.95,0.64 1.53,0.64 0.28,0 0.57,-0.06 0.83,-0.17 0.26,-0.11 0.5,-0.27 0.7,-0.47 0.2,-0.2 0.36,-0.44 0.47,-0.7 0.11,-0.27 0.17,-0.55 0.17,-0.83 0,-0.29 -0.06,-0.57 -0.17,-0.83 -0.11,-0.27 -0.27,-0.5 -0.47,-0.71l-3.06 -3.06c-0.41,-0.41 -0.96,-0.64 -1.54,-0.64 -0.57,0 -1.12,0.23 -1.53,0.64 -0.41,0.41 -0.64,0.96 -0.64,1.53 0,0.58 0.23,1.13 0.64,1.53l-1.92 -1.91c-0.2,-0.2 -0.44,-0.36 -0.7,-0.47 -0.26,-0.11 -0.54,-0.17 -0.83,-0.17 -0.28,0 -0.57,0.06 -0.83,0.17 -0.26,0.11 -0.5,0.27 -0.7,0.47 -0.2,0.2 -0.36,0.44 -0.47,0.7 -0.11,0.26 -0.17,0.55 -0.17,0.83 0,0.29 0.06,0.57 0.17,0.83 0.11,0.26 0.27,0.5 0.47,0.7l6.9 6.9z"/>
			<line fill="none" stroke="currentColor" stroke-width="2.17" stroke-linecap="round" stroke-linejoin="round" stroke-miterlimit="22.9256" x1="1.7" y1="22.3" x2="3.22" y2="20.78"/>
			<line fill="none" stroke="currentColor" stroke-width="2.17" stroke-linecap="round" stroke-linejoin="round" stroke-miterlimit="22.9256" x1="20.78" y1="3.22" x2="22.3" y2="1.7"/>
			<path fill="none" stroke="currentColor" stroke-width="2.17" stroke-linecap="round" stroke-linejoin="round" stroke-miterlimit="22.9256" d="M4.78 22.28c0.41,0.41 0.96,0.64 1.54,0.64 0.28,0 0.56,-0.06 0.83,-0.17 0.26,-0.11 0.5,-0.27 0.7,-0.47 0.2,-0.2 0.36,-0.44 0.47,-0.7 0.11,-0.26 0.17,-0.55 0.17,-0.83 0,-0.29 -0.06,-0.57 -0.17,-0.83 -0.11,-0.26 -0.27,-0.5 -0.47,-0.7l1.92 1.91c0.4,0.41 0.95,0.64 1.53,0.64 0.57,0 1.13,-0.23 1.53,-0.64 0.41,-0.4 0.64,-0.96 0.64,-1.53 0,-0.58 -0.23,-1.13 -0.64,-1.53l-6.9 -6.9c-0.2,-0.2 -0.44,-0.36 -0.7,-0.47 -0.26,-0.11 -0.54,-0.17 -0.83,-0.17 -0.28,0 -0.57,0.06 -0.83,0.17 -0.26,0.11 -0.5,0.27 -0.7,0.47 -0.2,0.2 -0.36,0.44 -0.47,0.7 -0.11,0.26 -0.17,0.55 -0.17,0.83 0,0.29 0.06,0.57 0.17,0.83 0.11,0.26 0.27,0.5 0.47,0.7l1.91 1.92c-0.4,-0.41 -0.95,-0.64 -1.53,-0.64 -0.57,0 -1.12,0.23 -1.53,0.64 -0.41,0.41 -0.64,0.96 -0.64,1.53 0,0.58 0.23,1.13 0.64,1.54l3.06 3.06z"/>
			<line fill="none" stroke="currentColor" stroke-width="2.17" stroke-linecap="round" stroke-linejoin="round" stroke-miterlimit="22.9256" x1="9.4" y1="14.6" x2="14.6" y2="9.4"/>
		</g>
	</symbol>

	<!-- Календарь (для даты) -->
	<symbol id="icon-date" viewBox="0 0 24 26.4">
		<g id="Слой_x0020_1">
			<metadata id="CorelCorpID_0Corel-Layer"/>
			<line fill="none" fill-opacity="0.901961" stroke="currentColor" stroke-width="2.4" stroke-linecap="round" stroke-linejoin="round" stroke-miterlimit="22.9256" stroke-opacity="0.901961" x1="7.2" y1="1.2" x2="7.2" y2="6"/>
			<line fill="none" fill-opacity="0.901961" stroke="currentColor" stroke-width="2.4" stroke-linecap="round" stroke-linejoin="round" stroke-miterlimit="22.9256" stroke-opacity="0.901961" x1="16.8" y1="1.2" x2="16.8" y2="6"/>
			<path fill="none" fill-opacity="0.901961" stroke="currentColor" stroke-width="2.4" stroke-linecap="round" stroke-linejoin="round" stroke-miterlimit="22.9256" stroke-opacity="0.901961" d="M20.4 3.6l-16.8 0c-1.33,0 -2.4,1.07 -2.4,2.4l0 16.8c0,1.33 1.07,2.4 2.4,2.4l16.8 0c1.33,0 2.4,-1.07 2.4,-2.4l0 -16.8c0,-1.33 -1.07,-2.4 -2.4,-2.4z"/>
			<line fill="none" fill-opacity="0.901961" stroke="currentColor" stroke-width="2.4" stroke-linecap="round" stroke-linejoin="round" stroke-miterlimit="22.9256" stroke-opacity="0.901961" x1="1.2" y1="10.8" x2="22.8" y2="10.8"/>
		</g>
	</symbol>

	<!-- Линейка/размер (для размеров поля) -->
	<symbol id="icon-ruler" viewBox="0 0 24 24">
		<g id="Слой_x0020_1">
			<metadata id="CorelCorpID_0Corel-Layer"/>
			<path fill="none" stroke="currentColor" stroke-width="2.18" stroke-linecap="round" stroke-linejoin="round" stroke-miterlimit="22.9256" d="M22.14 15.6c0.25,0.24 0.44,0.53 0.57,0.85 0.14,0.32 0.2,0.66 0.2,1 0,0.35 -0.06,0.69 -0.2,1.01 -0.13,0.32 -0.32,0.6 -0.57,0.85l-2.83 2.83c-0.25,0.25 -0.53,0.44 -0.85,0.57 -0.32,0.14 -0.66,0.2 -1.01,0.2 -0.34,0 -0.68,-0.06 -1,-0.2 -0.32,-0.13 -0.61,-0.32 -0.85,-0.57l-13.74 -13.74c-0.49,-0.49 -0.77,-1.16 -0.77,-1.85 0,-0.7 0.28,-1.37 0.77,-1.86l2.83 -2.83c0.49,-0.49 1.16,-0.77 1.86,-0.77 0.69,0 1.36,0.28 1.85,0.77l13.74 13.74z"/>
			<line fill="none" stroke="currentColor" stroke-width="2.18" stroke-linecap="round" stroke-linejoin="round" stroke-miterlimit="22.9256" x1="14.73" y1="12.55" x2="16.91" y2="10.36"/>
			<line fill="none" stroke="currentColor" stroke-width="2.18" stroke-linecap="round" stroke-linejoin="round" stroke-miterlimit="22.9256" x1="11.45" y1="9.27" x2="13.64" y2="7.09"/>
			<line fill="none" stroke="currentColor" stroke-width="2.18" stroke-linecap="round" stroke-linejoin="round" stroke-miterlimit="22.9256" x1="8.18" y1="6" x2="10.36" y2="3.82"/>
			<line fill="none" stroke="currentColor" stroke-width="2.18" stroke-linecap="round" stroke-linejoin="round" stroke-miterlimit="22.9256" x1="18" y1="15.82" x2="20.18" y2="13.64"/>
		</g>
	</symbol>

	<!-- Медицина (для медпункта) -->
	<symbol id="icon-medicine" viewBox="0 0 24 24">
		<g id="Слой_x0020_1">
			<metadata id="CorelCorpID_0Corel-Layer"/>
			<polygon fill="none" stroke="currentColor" stroke-width="3.43" stroke-linecap="round" stroke-linejoin="round" stroke-miterlimit="22.9256" points="8.57,1.71 8.57,8.57 1.71,8.57 1.71,15.43 8.57,15.43 8.57,22.29 15.43,22.29 15.43,15.43 22.29,15.43 22.29,8.57 15.43,8.57 15.43,1.71 "/>
		</g>
	</symbol>
</svg>
