<svg xmlns="http://www.w3.org/2000/svg" style="display: none;">
	<!-- Стрелка вправо (для кнопок "Все новости", "Читать далее", "Полная таблица") -->
	<symbol id="icon-arrow-right" viewBox="0 0 7.39 7.39">
		<path fill="#FF1A1A" d="M7.39 5.13l0 -2.87c0,-0.39 -0.04,-0.68 -0.15,-0.98 -0.1,-0.3 -0.32,-0.63 -0.57,-0.82 -0.16,-0.13 -0.33,-0.23 -0.54,-0.31 -0.28,-0.1 -0.6,-0.15 -0.99,-0.15l-2.9 0c-0.37,0 -0.68,0.05 -0.97,0.15 -0.41,0.14 -0.7,0.39 -0.94,0.75 -0.25,0.36 -0.33,0.9 -0.33,1.38l0 2.81c0,1.5 0.77,2.3 2.26,2.3l2.87 0c0.47,0 1,-0.09 1.36,-0.33 0.68,-0.45 0.9,-1.09 0.9,-1.93z"/>
		<path fill="white" d="M4.05 3.66l-1.28 -1.3c-0.12,-0.11 -0.36,-0.31 -0.36,-0.51 0,-0.34 0.38,-0.61 0.75,-0.2l0.33 0.34c0.3,0.29 0.97,1.01 1.19,1.19 0.62,0.52 0.3,0.7 -0.14,1.14l-1.41 1.42c-0.1,0.1 -0.18,0.2 -0.37,0.2 -0.21,0 -0.4,-0.18 -0.4,-0.39 0,-0.26 0.22,-0.41 0.36,-0.54 0.18,-0.19 1.26,-1.25 1.33,-1.35z"/>
	</symbol>

	<!-- Стрелка вправо маленькая (для кнопок "Читать далее") -->
	<symbol id="icon-arrow-right-sm" viewBox="0 0 16 16">
		<path d="M3.33331 8H12.6666" stroke="currentColor" stroke-width="1.33" stroke-linecap="round" stroke-linejoin="round"/>
		<path d="M8 3.33331L12.6667 8L8 12.6666" stroke="currentColor" stroke-width="1.33" stroke-linecap="round" stroke-linejoin="round"/>
	</symbol>

	<!-- Стрелка для баннера (в кнопке) -->
	<symbol id="icon-arrow-banner" viewBox="0 0 24 24">
		<line x1="5" y1="12" x2="19" y2="12" stroke="currentColor" stroke-width="2" stroke-linecap="round" stroke-linejoin="round"/>
		<polyline points="12 5 19 12 12 19" stroke="currentColor" stroke-width="2" stroke-linecap="round" stroke-linejoin="round"/>
	</symbol>

	<!-- Стрелка влево (навигация карусели) -->
	<symbol id="icon-chevron-left" viewBox="0 0 24 24">
		<polyline points="15 18 9 12 15 6" stroke="currentColor" stroke-width="2" stroke-linecap="round" stroke-linejoin="round"/>
	</symbol>

	<!-- Стрелка вправо (навигация карусели) -->
	<symbol id="icon-chevron-right" viewBox="0 0 24 24">
		<polyline points="9 18 15 12 9 6" stroke="currentColor" stroke-width="2" stroke-linecap="round" stroke-linejoin="round"/>
	</symbol>

	<!-- Маркер локации -->
	<symbol id="icon-location" viewBox="0 0 16 16">
		<path d="M13.333 6.667c0 4.666-5.333 8-5.333 8s-5.333-3.334-5.333-8a5.333 5.333 0 1 1 10.666 0Z" stroke="currentColor" stroke-width="1.33" stroke-linecap="round" stroke-linejoin="round"/>
		<circle cx="8" cy="6.667" r="2" stroke="currentColor" stroke-width="1.33"/>
	</symbol>

	<!-- Маркер локации (для last-games, с другими пропорциями) -->
	<symbol id="icon-location-sm" viewBox="0 0 14 14">
		<path d="M11.6667 5.83C11.6667 9.543 7.35 12.576 6.65 13.013C6.55 13.089 6.43 13.13 6.3 13.13C6.17 13.13 6.05 13.089 5.95 13.013C5.25 12.576 0.93 9.543 0.93 5.83C0.93 4.593 1.42 3.406 2.3 2.53C3.18 1.655 4.36 1.164 5.6 1.164C6.84 1.164 8.02 1.655 8.9 2.53C9.78 3.406 10.27 4.593 10.27 5.83Z" stroke="currentColor" stroke-width="1.17" stroke-linecap="round" stroke-linejoin="round"/>
		<circle cx="6.3" cy="5.83" r="1.75" stroke="currentColor" stroke-width="1.17"/>
	</symbol>

	<!-- Facebook -->
	<symbol id="icon-facebook" viewBox="0 0 24 24">
		<path d="M18 2h-3a5 5 0 0 0-5 5v3H7v4h3v8h4v-8h3l1-4h-4V7a1 1 0 0 1 1-1h3z" stroke="currentColor" stroke-width="2" stroke-linecap="round" stroke-linejoin="round" fill="none"/>
	</symbol>

	<!-- Instagram -->
	<symbol id="icon-instagram" viewBox="0 0 1000 1000">
		<path d="M295.42,3.5c-53.2,2.51-89.53,11-121.29,23.48-32.87,12.81-60.73,30-88.45,57.82S40.89,140.5,28.17,173.42c-12.31,31.83-20.65,68.19-23,121.42S2.3,365.18,2.56,500.96,3.42,653.76,6,707.1c2.54,53.19,11,89.51,23.48,121.28,12.83,32.87,30,60.72,57.83,88.45S143,961.59,176,974.33c31.8,12.29,68.17,20.67,121.39,23s70.35,2.87,206.09,2.61,152.83-.86,206.16-3.39S799.1,985.5,830.88,973.08c32.87-12.86,60.74-30,88.45-57.84S964.1,859.5,976.81,826.56c12.32-31.8,20.69-68.17,23-121.35,2.33-53.37,2.88-70.41,2.62-206.17s-.87-152.78-3.4-206.1-11-89.53-23.47-121.32c-12.85-32.87-30-60.7-57.82-88.45S862,38.37,829.07,25.69c-31.82-12.31-68.17-20.7-121.39-23S637.33-.2,501.54.06,348.75.9,295.42,3.5m5.84,903.88c-48.75-2.12-75.22-10.22-92.86-17-23.36-9-40-19.88-57.58-37.29s-28.38-34.11-37.5-57.42c-6.85-17.64-15.1-44.08-17.38-92.83-2.48-52.69-3-68.51-3.29-202s.22-149.29,2.53-202c2.08-48.71,10.23-75.21,17-92.84,9-23.39,19.84-40,37.29-57.57s34.1-28.39,57.43-37.51c17.62-6.88,44.06-15.06,92.79-17.38,52.73-2.5,68.53-3,202-3.29s149.31.21,202.06,2.53c48.71,2.12,75.22,10.19,92.83,17,23.37,9,40,19.81,57.57,37.29s28.4,34.07,37.52,57.45c6.89,17.57,15.07,44,17.37,92.76,2.51,52.73,3.08,68.54,3.32,202s-.23,149.31-2.54,202c-2.13,48.75-10.21,75.23-17,92.89-9,23.35-19.85,40-37.31,57.56s-34.09,28.38-57.43,37.5c-17.6,6.87-44.07,15.07-92.76,17.39-52.73,2.48-68.53,3-202.05,3.29s-149.27-.25-202-2.53m407.6-674.61a60,60,0,1,0,59.88-60.1,60,60,0,0,0-59.88,60.1M245.77,500.5c.28,141.8,115.44,256.49,257.21,256.22S759.52,641.3,759.25,499.5,643.79,243,502,243.26,245.5,358.72,245.77,500.5m90.06-.18a166.67,166.67,0,1,1,167,166.34,166.65,166.65,0,0,1-167-166.34" fill="currentColor"/>
	</symbol>

	<!-- YouTube -->
	<symbol id="icon-youtube" viewBox="0 0 24 24">
		<path d="M2.5 17a24.12 24.12 0 0 1 0-10 2 2 0 0 1 1.4-1.4 49.56 49.56 0 0 1 16.2 0A2 2 0 0 1 21.5 7a24.12 24.12 0 0 1 0 10 2 2 0 0 1-1.4 1.4 49.55 49.55 0 0 1-16.2 0A2 2 0 0 1 2.5 17" stroke="currentColor" stroke-width="2" stroke-linecap="round" stroke-linejoin="round" fill="none"/>
		<path d="m10 15 5-3-5-3z" stroke="currentColor" stroke-width="2" stroke-linecap="round" stroke-linejoin="round" fill="none"/>
	</symbol>

	<!-- Telegram -->
	<symbol id="icon-telegram" viewBox="180 295 560 465">
		<path d="M226.328419,494.722069 C372.088573,431.216685 469.284839,389.350049 517.917216,369.122161 C656.772535,311.36743 685.625481,301.334815 704.431427,301.003532 C708.567621,300.93067 717.815839,301.955743 723.806446,306.816707 C728.864797,310.92121 730.256552,316.46581 730.922551,320.357329 C731.588551,324.248848 732.417879,333.113828 731.758626,340.040666 C724.234007,419.102486 691.675104,610.964674 675.110982,699.515267 C668.10208,736.984342 654.301336,749.547532 640.940618,750.777006 C611.904684,753.448938 589.856115,731.588035 561.733393,713.153237 C517.726886,684.306416 492.866009,666.349181 450.150074,638.200013 C400.78442,605.66878 432.786119,587.789048 460.919462,558.568563 C468.282091,550.921423 596.21508,434.556479 598.691227,424.000355 C599.00091,422.680135 599.288312,417.758981 596.36474,415.160431 C593.441168,412.561881 589.126229,413.450484 586.012448,414.157198 C581.598758,415.158943 511.297793,461.625274 375.109553,553.556189 C355.154858,567.258623 337.080515,573.934908 320.886524,573.585046 C303.033948,573.199351 268.692754,563.490928 243.163606,555.192408 C211.851067,545.013936 186.964484,539.632504 189.131547,522.346309 C190.260287,513.342589 202.659244,504.134509 226.328419,494.722069 Z" fill="currentColor"/>
	</symbol>

	<!-- VK -->
	<symbol id="icon-vk" viewBox="15 28 70 46">
		<path d="M53.2085 72.042C30.4168 72.042 17.4169 56.417 16.8752 30.417H28.2919C28.6669 49.5003 37.0834 57.5836 43.75 59.2503V30.417H54.5004V46.8752C61.0837 46.1669 67.9995 38.667 70.3329 30.417H81.0832C79.2915 40.5837 71.7915 48.0836 66.4582 51.1669C71.7915 53.6669 80.3336 60.2086 83.5836 72.042H71.7499C69.2082 64.1253 62.8754 58.0003 54.5004 57.1669V72.042H53.2085Z" fill="currentColor"/>
	</symbol>

	<!-- Телефон (для контактов) -->
	<symbol id="icon-phone" viewBox="0 0 16 16">
		<path d="M14.667 11.28v2a1.333 1.333 0 0 1-1.454 1.333 13.2 13.2 0 0 1-5.753-2.047 13.007 13.007 0 0 1-4-4 13.2 13.2 0 0 1-2.047-5.78A1.333 1.333 0 0 1 2.74 1.333h2a1.333 1.333 0 0 1 1.333 1.147 8.56 8.56 0 0 0 .467 1.873 1.333 1.333 0 0 1-.3 1.407l-.847.847a10.667 10.667 0 0 0 4 4l.847-.847a1.333 1.333 0 0 1 1.407-.3 8.56 8.56 0 0 0 1.873.467 1.333 1.333 0 0 1 1.147 1.353Z" stroke="currentColor" stroke-width="1.33" stroke-linecap="round" stroke-linejoin="round"/>
	</symbol>

	<!-- Email (для контактов) -->
	<symbol id="icon-email" viewBox="0 0 16 16">
		<path d="M2.667 2.667h10.666c.734 0 1.334.6 1.334 1.333v8c0 .733-.6 1.333-1.334 1.333H2.667c-.734 0-1.334-.6-1.334-1.333V4c0-.733.6-1.333 1.334-1.333Z" stroke="currentColor" stroke-width="1.33" stroke-linecap="round" stroke-linejoin="round"/>
		<path d="m14.667 4-6.667 4.667L1.333 4" stroke="currentColor" stroke-width="1.33" stroke-linecap="round" stroke-linejoin="round"/>
	</symbol>

	<!-- Адрес/Локация (для контактов) -->
	<symbol id="icon-address" viewBox="0 0 16 16">
		<path d="M14 6.667c0 4.666-6 8.666-6 8.666s-6-4-6-8.666a6 6 0 1 1 12 0Z" stroke="currentColor" stroke-width="1.33" stroke-linecap="round" stroke-linejoin="round"/>
		<circle cx="8" cy="6.667" r="2" stroke="currentColor" stroke-width="1.33"/>
	</symbol>

	<!-- Часы (для контактов) -->
	<symbol id="icon-clock" viewBox="0 0 16 16">
		<circle cx="8" cy="8" r="6.667" stroke="currentColor" stroke-width="1.33" stroke-linecap="round" stroke-linejoin="round"/>
		<path d="M8 4v4l2.667 1.333" stroke="currentColor" stroke-width="1.33" stroke-linecap="round" stroke-linejoin="round"/>
	</symbol>

	<!-- Метка места (локация) -->
	<symbol id="icon-place" viewBox="0 0 16 16">
		<path d="M13.3334 6.66667C13.3334 9.99533 9.64069 13.462 8.40069 14.5327C8.28517 14.6195 8.14455 14.6665 8.00002 14.6665C7.85549 14.6665 7.71487 14.6195 7.59935 14.5327C6.35935 13.462 2.66669 9.99533 2.66669 6.66667C2.66669 5.25218 3.22859 3.89563 4.22878 2.89543C5.22898 1.89524 6.58553 1.33333 8.00002 1.33333C9.41451 1.33333 10.7711 1.89524 11.7713 2.89543C12.7715 3.89563 13.3334 5.25218 13.3334 6.66667Z" stroke="currentColor" stroke-width="1.33333" stroke-linecap="round" stroke-linejoin="round"/>
		<path d="M8 8.66667C9.10457 8.66667 10 7.77124 10 6.66667C10 5.5621 9.10457 4.66667 8 4.66667C6.89543 4.66667 6 5.5621 6 6.66667C6 7.77124 6.89543 8.66667 8 8.66667Z" stroke="currentColor" stroke-width="1.33333" stroke-linecap="round" stroke-linejoin="round"/>
	</symbol>

	<!-- Люди (для зрителей) -->
	<symbol id="icon-people" viewBox="0 0 16 16">
		<path d="M10.6666 14V12.6667C10.6666 11.9594 10.3857 11.2811 9.8856 10.781C9.3855 10.281 8.70722 10 7.99998 10H3.99998C3.29274 10 2.61446 10.281 2.11436 10.781C1.61426 11.2811 1.33331 11.9594 1.33331 12.6667V14" stroke="currentColor" stroke-width="1.33333" stroke-linecap="round" stroke-linejoin="round"/>
		<path d="M10.6667 2.08533C11.2385 2.23358 11.7449 2.56751 12.1065 3.03471C12.468 3.50191 12.6642 4.07593 12.6642 4.66667C12.6642 5.25741 12.468 5.83143 12.1065 6.29862C11.7449 6.76582 11.2385 7.09975 10.6667 7.248" stroke="currentColor" stroke-width="1.33333" stroke-linecap="round" stroke-linejoin="round"/>
		<path d="M14.6667 14V12.6667C14.6662 12.0758 14.4696 11.5018 14.1076 11.0349C13.7456 10.5679 13.2388 10.2344 12.6667 10.0867" stroke="currentColor" stroke-width="1.33333" stroke-linecap="round" stroke-linejoin="round"/>
		<path d="M5.99998 7.33333C7.47274 7.33333 8.66665 6.13943 8.66665 4.66667C8.66665 3.19391 7.47274 2 5.99998 2C4.52722 2 3.33331 3.19391 3.33331 4.66667C3.33331 6.13943 4.52722 7.33333 5.99998 7.33333Z" stroke="currentColor" stroke-width="1.33333" stroke-linecap="round" stroke-linejoin="round"/>
	</symbol>

	<!-- Placeholder для команд (белый квадрат) -->
	<symbol id="icon-team-placeholder" viewBox="0 0 48 48">
		<rect width="48" height="48" fill="currentColor"/>
	</symbol>

	<!-- Отчет/документ (для отчета о матче) -->
	<symbol id="icon-report" viewBox="0 0 22 22">
		<path d="M13.75 1.83337H5.5C5.01377 1.83337 4.54745 2.02653 4.20363 2.37034C3.85982 2.71416 3.66666 3.18048 3.66666 3.66671V18.3334C3.66666 18.8196 3.85982 19.2859 4.20363 19.6297C4.54745 19.9736 5.01377 20.1667 5.5 20.1667H16.5C16.9862 20.1667 17.4525 19.9736 17.7964 19.6297C18.1402 19.2859 18.3333 18.8196 18.3333 18.3334V6.41671L13.75 1.83337Z" stroke="currentColor" stroke-width="1.83333" stroke-linecap="round" stroke-linejoin="round" fill="none"/>
		<path d="M12.8333 1.83337V5.50004C12.8333 5.98627 13.0265 6.45259 13.3703 6.7964C13.7141 7.14022 14.1804 7.33337 14.6667 7.33337H18.3333" stroke="currentColor" stroke-width="1.83333" stroke-linecap="round" stroke-linejoin="round" fill="none"/>
		<path d="M9.16667 8.25H7.33334" stroke="currentColor" stroke-width="1.83333" stroke-linecap="round" stroke-linejoin="round"/>
		<path d="M14.6667 11.9166H7.33334" stroke="currentColor" stroke-width="1.83333" stroke-linecap="round" stroke-linejoin="round"/>
		<path d="M14.6667 15.5834H7.33334" stroke="currentColor" stroke-width="1.83333" stroke-linecap="round" stroke-linejoin="round"/>
	</symbol>

	<!-- События/молния (для событий матча) -->
	<symbol id="icon-event" viewBox="0 0 22 22">
		<path d="M3.66666 12.8333C3.4932 12.8339 3.32313 12.7853 3.17621 12.6931C3.02928 12.6008 2.91155 12.4688 2.83667 12.3124C2.76179 12.1559 2.73285 11.9814 2.75321 11.8091C2.77356 11.6368 2.84238 11.4739 2.95166 11.3392L12.0267 1.98917C12.0947 1.91059 12.1875 1.8575 12.2897 1.83859C12.392 1.81969 12.4976 1.8361 12.5893 1.88513C12.6809 1.93416 12.7532 2.01291 12.7942 2.10843C12.8352 2.20396 12.8426 2.3106 12.815 2.41084L11.055 7.92917C11.0031 8.06807 10.9857 8.21748 11.0042 8.36459C11.0227 8.5117 11.0767 8.65213 11.1614 8.77381C11.2461 8.89549 11.3591 8.99481 11.4907 9.06323C11.6222 9.13166 11.7684 9.16715 11.9167 9.16667H18.3333C18.5068 9.16608 18.6769 9.21472 18.8238 9.30694C18.9707 9.39916 19.0885 9.53118 19.1633 9.68765C19.2382 9.84412 19.2671 10.0186 19.2468 10.1909C19.2264 10.3632 19.1576 10.5261 19.0483 10.6608L9.97333 20.0108C9.90526 20.0894 9.81249 20.1425 9.71027 20.1614C9.60804 20.1803 9.50242 20.1639 9.41075 20.1149C9.31907 20.0658 9.2468 19.9871 9.20577 19.8916C9.16475 19.796 9.15743 19.6894 9.185 19.5892L10.945 14.0708C10.9969 13.9319 11.0143 13.7825 10.9958 13.6354C10.9773 13.4883 10.9233 13.3479 10.8386 13.2262C10.7539 13.1045 10.6409 13.0052 10.5093 12.9368C10.3778 12.8683 10.2316 12.8329 10.0833 12.8333H3.66666Z" stroke="currentColor" stroke-width="1.83333" stroke-linecap="round" stroke-linejoin="round"/>
	</symbol>

	<!-- Стрелка вниз (для кнопок раскрытия - закрытое состояние "Показать все события") -->
	<symbol id="icon-arrow-down" viewBox="0 0 24 24" fill="none">
		<path d="M12 5L12 19M12 19L6 13M12 19L18 13" stroke="currentColor" stroke-width="2" stroke-linecap="round" stroke-linejoin="round"/>
	</symbol>

	<!-- Стрелка вверх (для кнопок раскрытия - открытое состояние "Скрыть события") -->
	<symbol id="icon-arrow-up" viewBox="0 0 24 24" fill="none">
		<path d="M12 19L12 5M12 5L6 11M12 5L18 11" stroke="currentColor" stroke-width="2" stroke-linecap="round" stroke-linejoin="round"/>
	</symbol>
</svg>
